:SAMPLES-PER-SECOND 30
:FULLY-SPECIFIED
:DEGREES
580
root  2.21055 30.4176 35.5877 -158.355 84.3615 -163.173
RightUpLeg  -10.8922 7.35616 -12.9331
RightLeg  67.0278 5.55713 10.7909
RightFoot  6.80427 -0.0703762 1.56117
RightToes  -53.9569 -0.338433 -0.379674
Spine  7.60879 -1.94544 1.8298
Spine1  14.9624 -3.65447 2.83978
HEad  33.8142 6.94215 -3.94898
LeftShoulder1  0 -2.42657e-020 -4.95415e-022
LeftArm  -20.1833 15.5335 -85.1179
LeftForeArm  -143.411 -29.2872 -5.23333
LeftHand  9.89766 -25.9747 -41.5352
RightShoulder  0 2.42657e-020 1.07489e-018
RightArm  -66.2663 -16.6656 78.6132
RightForeArm  7.64804 57.6334 16.1918
RightHand  2.42648 22.5819 12.4833
LeftUpLeg  -41.2357 -3.33618 -7.49921
LeftLeg  48.8989 4.28957 4.30288
LeftFoot  -5.75131 -0.0309525 -0.616196
LeftToes  10.282 1.18758e-006 1.19596e-007
581
root  4.19457 31.4211 34.826 -157.015 83.102 -162.89
RightUpLeg  -16.6451 4.44125 -11.0322
RightLeg  65.9261 2.86048 5.2903
RightFoot  6.2159 -0.0188895 0.725358
RightToes  -48.4475 -0.289233 -0.357703
Spine  7.28558 -2.53187 1.68686
Spine1  14.3509 -4.80099 2.33429
HEad  33.5423 9.44322 -5.58658
LeftShoulder1  0 -2.42657e-020 -4.95415e-022
LeftArm  -20.0724 16.7569 -84.5417
LeftForeArm  -144.576 -31.5653 -5.76541
LeftHand  10.0769 -25.9445 -42.2664
RightShoulder  0 2.42657e-020 1.07489e-018
RightArm  -64.8036 -16.5725 76.0909
RightForeArm  12.3365 61.1716 18.7521
RightHand  1.95851 22.9079 10.017
LeftUpLeg  -35.398 -4.94029 -7.70999
LeftLeg  43.2955 4.42842 3.65074
LeftFoot  -6.4934 -0.0379562 -0.669112
LeftToes  10.6772 1.18758e-006 1.19596e-007
582
root  6.11457 32.3321 34.0763 -155.661 81.5735 -162.332
RightUpLeg  -21.6058 2.06574 -8.31709
RightLeg  62.4285 -0.0932245 -0.25619
RightFoot  4.37167 0.0133817 0.0269514
RightToes  -44.4503 -0.254974 -0.338856
Spine  6.88026 -3.14144 1.66133
Spine1  13.5596 -5.96692 1.98048
HEad  33.8884 11.9164 -7.32348
LeftShoulder1  0 -2.42657e-020 -4.95415e-022
LeftArm  -20.4279 18.3473 -84.2401
LeftForeArm  -146.903 -33.7684 -6.30463
LeftHand  10.1187 -26.0946 -42.1971
RightShoulder  0 2.42657e-020 1.07489e-018
RightArm  -61.613 -13.7497 71.6767
RightForeArm  19.592 61.3247 18.8908
RightHand  1.30877 22.9703 6.8067
LeftUpLeg  -28.9415 -6.0519 -7.81434
LeftLeg  36.418 3.75358 2.40526
LeftFoot  -6.35732 -0.0289309 -0.520954
LeftToes  11.6096 1.18758e-006 1.19596e-007
583
root  7.9988 33.0493 33.3239 -153.647 80.0856 -160.741
RightUpLeg  -25.5842 1.18228 -5.17404
RightLeg  56.8086 -1.9215 -2.63047
RightFoot  2.08442 0.00875543 -0.103693
RightToes  -41.4409 -0.230095 -0.323116
Spine  6.64209 -3.3982 1.74194
Spine1  13.0829 -6.42396 1.83195
HEad  34.2344 13.2459 -8.40736
LeftShoulder1  0 -2.42657e-020 -4.95415e-022
LeftArm  -19.2456 18.6491 -83.8241
LeftForeArm  -149.503 -35.0962 -6.6427
LeftHand  10.3666 -26.8883 -41.9405
RightShoulder  0 2.42657e-020 1.07489e-018
RightArm  -58.8139 -9.30832 66.6143
RightForeArm  26.0292 59.0431 17.1686
RightHand  0.705492 23.6094 3.74567
LeftUpLeg  -22.6045 -6.04372 -7.94476
LeftLeg  29.9003 2.84324 1.39564
LeftFoot  -5.77811 -0.0179108 -0.354913
LeftToes  13.6205 1.18758e-006 1.19596e-007
584
root  9.83863 33.5282 32.5539 -155.064 78.5577 -162.378
RightUpLeg  -28.9406 1.50949 -2.71174
RightLeg  49.9912 -2.40343 -2.55898
RightFoot  0.503202 0.0018954 -0.0539988
RightToes  -40.3466 -0.221258 -0.317072
Spine  6.44474 -3.51236 1.68957
Spine1  12.6615 -6.5787 1.43424
HEad  34.6268 13.2201 -8.65249
LeftShoulder1  0 -2.42657e-020 -4.95415e-022
LeftArm  -18.0023 18.0312 -83.3129
LeftForeArm  -149.417 -35.3382 -6.70589
LeftHand  10.2259 -27.1899 -40.9869
RightShoulder  0 2.42657e-020 1.07489e-018
RightArm  -56.1861 -4.03565 61.8493
RightForeArm  27.4113 54.5831 14.4055
RightHand  0.472714 23.5446 2.63866
LeftUpLeg  -17.1122 -4.98753 -8.57175
LeftLeg  25.1862 0.64328 0.250405
LeftFoot  -4.45921 -0.00362924 -0.0932252
LeftToes  13.581 1.18758e-006 1.19596e-007
